#!OML:ASF F:\VICON\USERDATA\INSTALL\rory3\rory3.ASF
:FULLY-SPECIFIED
:DEGREES
118
root 1.125971745871666 18.296391164956354 46.01626667789779 2.4003586966704185 0.9481749362433087 -0.22964905467606478
lfemur -34.992183746819066 -6.993858490330597 -15.650785854878087
ltibia 19.35336304166669
lfoot 5.595472649728465 -1.8092605221728375
ltoes 7.038830830121526
rfemur -1.511450568225861 -0.2549152983282488 24.124044969330058
rtibia 65.74517537636854
rfoot 30.87636432620534 -2.762704785986188
rtoes 22.845099892150003
lowerback nan -0.49293784542072727 0.7291444532969229
upperback -0.8447404926606089 2.367067013559459 -0.6649812698237669
thorax -6.606294672412384 0.10688769697780987 1.0790597641090538
lowerneck -16.63117594606617 -5.724596958416962 -2.385408225287591
upperneck 7.386019882191169 -7.690658600524999 7.416967877239344
head 6.468861813807251 -3.395639332529615 1.0946238765762326
lclavicle -2.0976006526577916e-14 8.058170371858827e-15
lhumerus -63.0466127177541 -3.8139571750964594 88.76811024461227
lradius 112.58917448736817
lwrist 35.309509494962285
lhand -30.962303370519983 8.047170114281057
lfingers nan
lthumb -4.033604160314469 38.116264530253574
rclavicle -1.9347181787635776e-14 1.0845476891871476e-14
rhumerus -44.997574415728394 13.995866498696632 -94.02491581245626
rradius 120.31420962820391
rwrist -14.969049688991781
rhand -22.75087103377447 nan
rfingers nan
rthumb 3.573959548120021 10.958165128239532
119
root 1.1260662064840972 18.301894972865707 46.11005157398533 2.544189873074836 0.6537823982865361 -0.6796178544630598
lfemur -33.8940996425111 -7.495987267678652 -15.239017268765256
ltibia 14.234392026271948
lfoot 3.9645468821897394 -0.647511457483823
ltoes -5.714094908353635
rfemur -2.9280531474390905 0.3969028062530717 24.664200223850592
rtibia 68.01376846317365
rfoot 30.309959685146822 -3.5279387404425306
rtoes 24.292056287573057
lowerback nan -0.4654192330853809 0.9129014259367173
upperback -0.7773985065277859 2.449776910669279 -0.5632600882649037
thorax -6.2315508365721515 0.14314787878185042 1.0958205348147285
lowerneck -17.153271205315313 -5.7530919859853515 -2.3656005592174587
upperneck 7.761411140686619 -7.660250319875285 7.232297099167644
head 6.710104204468486 -3.4206448198467294 1.046414138129975
lclavicle 3.084140746367899e-14 -1.7013549392271236e-15
lhumerus -63.142511064612385 -3.53072100457607 88.52965650293025
lradius 113.38520617133177
lwrist 35.32852018684689
lhand -30.305427952518183 5.436541365502363
lfingers nan
lthumb -3.4332064096846953 35.568604959552836
rclavicle 3.2580483742150135e-14 1.3800595461177448e-15
rhumerus -45.32270172681249 14.427794640463768 -94.0798034364912
rradius 120.00919684806466
rwrist -15.728775963660205
rhand -22.907066038624915 nan
rfingers nan
rthumb 3.440995324327168 14.016772650282007
120
root 1.1121174337932547 18.32170237884361 46.08622159128825 2.681286647852282 0.2587853351700662 -1.4170565046175014
lfemur -32.84336390803246 -7.696498681504643 -14.405955848182742
ltibia 9.377543062805593
lfoot 4.205388319944935 0.20948842421180736
ltoes -9.908256780943429
rfemur -4.294889770743611 1.2131482236171334 25.685641193908584
rtibia 70.50325988913252
rfoot 29.133766021665004 -4.609444584400132
rtoes 25.188350338749988
lowerback nan -0.43476237141272944 1.2800184472569756
upperback -0.8222580663543956 2.5577891189287163 -0.3718846945690426
thorax -6.326436854049774 0.19109375151049252 1.1072204849823701
lowerneck -17.409558521185218 -5.682333414132609 -2.2092365405801706
upperneck 7.764552109521443 -7.516844687902485 6.879128433469733
head 6.748583102701834 -3.3948573298300415 0.9584847205557131
lclavicle 2.7390740483311013e-14 6.652317368821067e-15
lhumerus -63.25702225149798 -3.2174560014769114 88.37184003725437
lradius 114.00825466940047
lwrist 35.14823579829256
lhand -30.437827796707047 6.262438912672215
lfingers nan
lthumb -3.590117201352511 36.4160803582388
rclavicle 2.945688410201905e-14 9.883916947351947e-15
rhumerus -45.870558968000374 14.845269548415082 -94.35444585908131
rradius 119.61163919548505
rwrist -16.2655002692433
rhand -22.697097467135706 nan
rfingers nan
rthumb 3.618571182920409 16.93248613438084
121
root 1.0909197875917396 18.321507946796455 46.010201593903986 2.354545943635337 -0.34131239985802364 -1.3214740577390376
lfemur -31.705991196660513 -7.899624908353152 -14.616736827908728
ltibia 5.14002140120094
lfoot 5.344948058982089 0.8374833974977598
ltoes -12.30873877061497
rfemur -5.241825926423994 2.300506262550493 25.976862525546515
rtibia 73.27274067111219
rfoot 28.011645885024485 -5.653225204458776
rtoes 25.116280439750277
lowerback nan -0.34718376387446515 0.7886932204086043
upperback -0.9404013211397942 2.6362767312985005 -0.33787671890711857
thorax -7.751331976650592 0.2414604655829536 1.185625188263873
lowerneck -17.319380429375414 -5.649506608813363 -2.144230096635507
upperneck 7.527376484343895 -7.470201428135556 6.804793303149433
head 6.672070480900084 -3.3850889450678467 0.9415378551530444
lclavicle -6.364931950541047e-14 4.908391069212234e-15
lhumerus -63.43653235524948 -2.9333967116478714 88.2374462091955
lradius 114.64507318550135
lwrist 34.959492750762024
lhand -30.2515031220765 6.705226568553456
lfingers nan
lthumb -3.4112896663366232 36.878343167076196
rclavicle -6.141768975281054e-14 7.58374092807465e-15
rhumerus -46.50614966406882 15.178389077207235 -94.84247404854928
rradius 119.06031278954651
rwrist -16.549286882312956
rhand -22.0468003867678 nan
rfingers nan
rthumb 4.225845876525431 19.2588287954516
122
root 1.1023348606136532 18.301730023388696 46.707698074465185 2.24634615548921 -0.4434143839215263 -1.1052682829113674
lfemur -30.572327062721246 -8.357815314579907 -14.96512934486416
ltibia 1.5924062381295059
lfoot 6.107796051913541 1.3502516556402941
ltoes -13.130576146212471
rfemur -6.084376297306104 2.5729090360941953 25.759295950498785
rtibia 76.06755398389774
rfoot 27.027590029731222 -6.347899020489155
rtoes 25.013182299382503
lowerback nan -0.36816884648856407 0.48609703370132107
upperback -0.7846869344302719 2.579684030700827 -0.3383355516102582
thorax -7.171530788156332 0.21913549862364567 1.2264767154459661
lowerneck -17.29003645244267 -5.639123811466403 -2.1754812856662196
upperneck 7.152206958700182 -7.449829700633469 6.881203953935735
head 6.58402391723108 -3.3762317196541316 0.9726010516921706
lclavicle -1.2582389170330088e-14 -5.3955079379738356e-15
lhumerus -63.354601972367036 -2.6554671687514118 88.1305446040097
lradius 115.17400429227806
lwrist 34.87471735075054
lhand -28.75358617100596 3.138707327081406
lfingers nan
lthumb -1.934280086736065 33.44731718978516
rclavicle -1.0402121816065985e-14 -2.1779503831529975e-15
rhumerus -46.97713778773693 15.494242618188927 -95.14047754175942
rradius 118.2247534741805
rwrist -16.825896866652727
rhand -21.12811805416731 nan
rfingers nan
rthumb 5.087338540431611 20.57979788464357
123
root 1.1151606658322297 18.284656348105976 47.07808457805368 2.3831895801125573 -0.5977523608996078 -1.1051922404427432
lfemur -29.778490299081174 -8.639276880388412 -15.130978370059399
ltibia -1.120724454063513
lfoot 6.619034385929563 1.7837106416323607
ltoes -11.648431881290318
rfemur -7.325267037831168 2.804887259030523 25.609874492196372
rtibia 79.0880324533431
rfoot 26.855499727858472 -6.883522835458532
rtoes 24.573147522759882
lowerback nan -0.3685709439911026 0.41892617831517476
upperback -0.6081509634393543 2.5358798836193963 -0.3436293607303478
thorax -6.1106161935397 0.20418206558146346 1.2404557962983604
lowerneck -17.365119874579296 -5.57070841751122 -2.085675309114711
upperneck 6.780886020931636 -7.348068786136174 6.844965762390554
head 6.495855757212218 -3.338716983465281 0.9569401061659066
lclavicle -1.7639962069226384e-15 2.5860684103230177e-14
lhumerus -63.16634004649096 -2.436151842784338 88.02649798285658
lradius 115.73451619653486
lwrist 34.82131752801941
lhand -27.692140199566982 0.07644516093470477
lfingers nan
lthumb -0.8708275869173379 30.425255451180448
rclavicle 7.900408855691834e-16 2.94646904317416e-14
rhumerus -47.51079301703386 15.651415518938606 -95.70914683361141
rradius 117.0972546960043
rwrist -16.796212498578125
rhand -19.878662229606867 nan
rfingers nan
rthumb 6.2964681869370605 21.228720575630412
